<?xml version="1.0" encoding="UTF-8" standalone="no"?>
<svg
   width="512"
   height="512"
   viewBox="0 0 135.46666 135.46667"
   version="1.1"
   id="svg1"
   xmlns="http://www.w3.org/2000/svg"
   xmlns:svg="http://www.w3.org/2000/svg">
  <g
     id="layer1">
    <path
       id="path5"
       style="display:inline;fill:#ffffff;stroke-width:0.770161;fill-opacity:1"
       d="m 67.733333,0 a 67.73333,67.73333 0 0 0 -1.508435,0.10800374 c 4.7094,6.38949836 9.503087,13.80901626 13.804326,22.24567026 0.03816,0.07485 0.0741,0.153866 0.112137,0.228927 a 10.583333,10.342957 0 0 1 0.955498,-0.06666 10.583333,10.342957 0 0 1 10.100158,7.259506 c 11.868603,0.864051 24.309803,3.336059 37.224603,7.966438 A 67.73333,67.73333 0 0 0 67.733333,0 Z M 58.062606,0.69608154 A 67.73333,67.73333 0 0 0 32.305005,10.105326 c -0.975759,6.516435 -1.660945,13.978547 -1.675867,22.283395 -8.87e-4,0.493973 0.03309,1.024946 0.03979,1.527038 a 10.583333,10.342957 0 0 1 5.423958,3.283521 c 10.694591,-3.688413 22.379626,-6.36539 34.88831,-7.355624 a 10.583333,10.342957 0 0 1 2.857707,-4.481897 C 68.922483,15.740308 63.35315,7.4881413 58.062606,0.69608154 Z M 24.669295,15.579928 a 67.73333,67.73333 0 0 0 -10.937317,11.68094 c 2.835554,2.512262 5.87904,5.094423 9.100737,7.721493 a 10.583333,10.342957 0 0 1 0.961698,-0.492993 c -0.02011,-0.71065 -0.04568,-1.427194 -0.04444,-2.1146 0.01079,-6.003685 0.359783,-11.624152 0.919322,-16.79484 z m 56.427564,11.986865 a 5.2916665,5.2916665 0 0 0 -5.291667,5.291666 5.2916665,5.2916665 0 0 0 5.291667,5.291667 5.2916665,5.2916665 0 0 0 5.291666,-5.291667 5.2916665,5.2916665 0 0 0 -5.291666,-5.291666 z M 9.9084391,32.885848 A 67.73333,67.73333 0 0 0 1.6660482,53.941927 C 5.6296565,51.427023 9.8381173,48.94692 14.339693,46.591988 15.395627,46.039594 16.475107,45.4981 17.562236,44.96108 a 10.583333,10.342957 0 0 1 -0.07441,-1.019576 10.583333,10.342957 0 0 1 0.837159,-3.983219 c -2.944093,-2.395823 -5.79577,-4.768718 -8.4165459,-7.072437 z m 81.0379479,3.685563 a 10.583333,10.342957 0 0 1 -3.099036,4.235917 c 3.249859,9.400038 5.678343,19.66512 6.767546,30.715955 a 10.583333,10.342957 0 0 1 3.767728,1.794206 C 110.01429,66.024923 121.35449,57.172862 131.65501,46.347559 117.41979,40.581334 103.81066,37.556134 90.946387,36.571411 Z m -19.678902,0.05219 C 59.590884,37.572653 48.679725,40.089209 38.64467,43.55238 a 10.583333,10.342957 0 0 1 0.0098,0.389124 10.583333,10.342957 0 0 1 -0.395325,2.763656 c 13.045298,9.311635 28.436719,18.752904 46.323788,27.445353 a 10.583333,10.342957 0 0 1 3.270084,-2.13217 C 86.80748,61.649715 84.501214,52.024903 81.430688,43.178243 a 10.583333,10.342957 0 0 1 -0.333829,0.02325 10.583333,10.342957 0 0 1 -9.829374,-6.577893 z m -43.19633,2.026233 a 5.2916665,5.2916665 0 0 0 -5.291667,5.291667 5.2916665,5.2916665 0 0 0 5.291667,5.291667 5.2916665,5.2916665 0 0 0 5.291666,-5.291667 5.2916665,5.2916665 0 0 0 -5.291666,-5.291667 z M 20.538798,51.170003 C 19.523733,51.669256 18.514586,52.172232 17.529163,52.68774 11.242192,55.976672 5.5212623,59.506886 0.34778239,63.036979 A 67.73333,67.73333 0 0 0 0,67.733333 67.73333,67.73333 0 0 0 10.984859,104.66286 c 5.809908,-0.87513 12.689326,-2.15164 20.244759,-3.93774 a 10.583333,10.342957 0 0 1 4.074687,-7.474998 C 29.918319,79.345343 26.821964,66.117726 25.224817,53.894385 a 10.583333,10.342957 0 0 1 -4.686019,-2.724382 z m 13.810527,1.065052 a 10.583333,10.342957 0 0 1 -2.295984,1.265555 c 1.564799,11.658129 4.577373,24.286838 9.759094,37.570317 a 10.583333,10.342957 0 0 1 8.534363,4.296895 C 60.301044,92.151817 70.82658,88.063351 81.464795,82.766524 a 10.583333,10.342957 0 0 1 -0.09043,-1.233516 10.583333,10.342957 0 0 1 0.0987,-1.348238 C 63.340167,71.337859 47.649181,61.726224 34.349325,52.235055 Z m 99.656445,1.575097 c -9.96072,10.018787 -20.74495,18.336527 -31.7655,25.281661 a 10.583333,10.342957 0 0 1 0.30076,2.441195 10.583333,10.342957 0 0 1 -0.0501,0.683679 c 8.85076,3.676743 18.19685,7.138379 28.09958,10.288261 A 67.73333,67.73333 0 0 0 135.4667,67.733333 67.73333,67.73333 0 0 0 134.0058,53.810152 Z M 91.957694,76.241341 a 5.2916665,5.2916665 0 0 0 -5.291666,5.291667 5.2916665,5.2916665 0 0 0 5.291666,5.291666 5.2916665,5.2916665 0 0 0 5.291667,-5.291666 5.2916665,5.2916665 0 0 0 -5.291667,-5.291667 z m 7.839315,12.220443 a 10.583333,10.342957 0 0 1 -4.768701,2.963126 c -0.677542,12.97791 -3.261414,26.79445 -8.495605,41.35975 A 67.73333,67.73333 0 0 0 127.74827,98.778984 C 117.9126,95.614866 108.61935,92.142871 99.797009,88.461784 Z M 84.650647,88.982166 C 73.585765,94.503424 62.647063,98.7228 52.29965,102.04597 a 10.583333,10.342957 0 0 1 -2.665987,6.26421 c 4.592094,8.84705 10.188942,17.90015 16.998962,27.07432 a 67.73333,67.73333 0 0 0 1.100708,0.0822 67.73333,67.73333 0 0 0 10.823629,-0.94723 c 6.03792,-15.39532 8.979638,-29.85648 9.721371,-43.316221 a 10.583333,10.342957 0 0 1 -3.627686,-2.221053 z m -42.888338,7.139099 a 5.2916665,5.2916665 0 0 0 -5.291667,5.291665 5.2916665,5.2916665 0 0 0 5.291667,5.29167 5.2916665,5.2916665 0 0 0 5.291666,-5.29167 5.2916665,5.2916665 0 0 0 -5.291666,-5.291665 z m -8.582422,11.302155 c -6.360276,1.51198 -12.265254,2.67343 -17.483687,3.53415 a 67.73333,67.73333 0 0 0 41.957128,23.72206 C 52.186686,126.8798 47.568296,119.16317 43.630929,111.57355 a 10.583333,10.342957 0 0 1 -1.86862,0.1819 10.583333,10.342957 0 0 1 -8.582422,-4.33203 z" />
  </g>
</svg>
